<svg xmlns="http://www.w3.org/2000/svg">
  <symbol id="calculator" viewBox="0 0 24 24">
    <rect x="5" y="3" width="14" height="18" rx="2" fill="none" stroke="currentColor" stroke-width="2" />
    <path d="M8 7h8" fill="none" stroke="currentColor" stroke-width="2" stroke-linecap="round" />
    <path d="M8 11h.01M12 11h.01M16 11h.01M8 15h.01M12 15h.01M16 15h.01" fill="none" stroke="currentColor" stroke-width="3" stroke-linecap="round" />
  </symbol>

  <symbol id="chevron-down" viewBox="0 0 24 24">
    <path d="M6 9l6 6 6-6" fill="none" stroke="currentColor" stroke-width="2.4" stroke-linecap="round" stroke-linejoin="round" />
  </symbol>

  <symbol id="chevron-left" viewBox="0 0 24 24">
    <path d="M15 6l-6 6 6 6" fill="none" stroke="currentColor" stroke-width="2.4" stroke-linecap="round" stroke-linejoin="round" />
  </symbol>

  <symbol id="language" viewBox="0 0 24 24">
    <path d="M4 5h10M9 3v2M11 5c-.8 3.2-2.9 6.1-6 8M7 9c1.1 1.6 2.4 2.9 4 4M13 21l4-9 4 9M14.5 18h5" fill="none" stroke="currentColor" stroke-width="2" stroke-linecap="round" stroke-linejoin="round" />
  </symbol>

  <symbol id="clear-all" viewBox="0 0 24 24">
    <path d="M4 7h16M9 7V5h6v2M7 7l1 13h8l1-13" fill="none" stroke="currentColor" stroke-width="2" stroke-linecap="round" stroke-linejoin="round" />
    <path d="M10 11v5M14 11v5" fill="none" stroke="currentColor" stroke-width="2" stroke-linecap="round" />
  </symbol>

  <symbol id="save" viewBox="0 0 24 24">
    <path d="M5 4h12l2 2v14H5V4z" fill="none" stroke="currentColor" stroke-width="2" stroke-linejoin="round" />
    <path d="M8 4v6h8V4M8 20v-6h8v6" fill="none" stroke="currentColor" stroke-width="2" stroke-linejoin="round" />
  </symbol>

  <symbol id="export" viewBox="0 0 24 24">
    <path d="M12 15V4M8 8l4-4 4 4" fill="none" stroke="currentColor" stroke-width="2.2" stroke-linecap="round" stroke-linejoin="round" />
    <path d="M5 13v6h14v-6" fill="none" stroke="currentColor" stroke-width="2.2" stroke-linecap="round" stroke-linejoin="round" />
  </symbol>

  <symbol id="import" viewBox="0 0 24 24">
    <path d="M12 4v11M8 11l4 4 4-4" fill="none" stroke="currentColor" stroke-width="2.2" stroke-linecap="round" stroke-linejoin="round" />
    <path d="M5 13v6h14v-6" fill="none" stroke="currentColor" stroke-width="2.2" stroke-linecap="round" stroke-linejoin="round" />
  </symbol>

  <symbol id="duplicate" viewBox="0 0 24 24">
    <rect x="8" y="8" width="11" height="11" rx="2" fill="none" stroke="currentColor" stroke-width="2" />
    <path d="M5 15V7a2 2 0 0 1 2-2h8" fill="none" stroke="currentColor" stroke-width="2" stroke-linecap="round" stroke-linejoin="round" />
  </symbol>

  <symbol id="delete" viewBox="0 0 24 24">
    <path d="M4 7h16M9 7V5h6v2M7 7l1 13h8l1-13" fill="none" stroke="currentColor" stroke-width="2" stroke-linecap="round" stroke-linejoin="round" />
    <path d="M10 11v5M14 11v5" fill="none" stroke="currentColor" stroke-width="2" stroke-linecap="round" />
  </symbol>

  <symbol id="clear" viewBox="0 0 24 24">
    <path d="M4 17l8.5-8.5a3 3 0 0 1 4.2 0l.8.8a3 3 0 0 1 0 4.2L11 20H4v-3z" fill="none" stroke="currentColor" stroke-width="2" stroke-linecap="round" stroke-linejoin="round" />
    <path d="M12 9l4 4M14 20h6" fill="none" stroke="currentColor" stroke-width="2" stroke-linecap="round" stroke-linejoin="round" />
  </symbol>

  <symbol id="reset" viewBox="0 0 24 24">
    <path d="M4 12a8 8 0 0 1 13.66-5.66L20 8" fill="none" stroke="currentColor" stroke-width="2" stroke-linecap="round" stroke-linejoin="round" />
    <path d="M20 4v4h-4" fill="none" stroke="currentColor" stroke-width="2" stroke-linecap="round" stroke-linejoin="round" />
    <path d="M20 12a8 8 0 0 1-13.66 5.66L4 16" fill="none" stroke="currentColor" stroke-width="2" stroke-linecap="round" stroke-linejoin="round" />
    <path d="M4 20v-4h4" fill="none" stroke="currentColor" stroke-width="2" stroke-linecap="round" stroke-linejoin="round" />
  </symbol>
</svg>
